<svg width="254" height="58" viewBox="0 0 254 58" fill="none" xmlns="http://www.w3.org/2000/svg">
<rect width="254" height="58" rx="8" fill="white"/>
<g clip-path="url(#clip0_6_712)">
<path d="M26.5979 14.0036C26.5979 14.0036 30.2765 13.6867 30.3838 19.0299C30.4366 21.6595 29.48 23.8317 28.7204 25.1326C28.1393 26.1275 27.8359 27.2602 27.859 28.4122L27.8603 28.4752L26.8888 28.4947L25.9173 28.5142L25.916 28.4513C25.8929 27.2992 25.5442 26.1797 24.9237 25.2088C24.1124 23.9394 23.0695 21.8074 23.0167 19.1778C22.9096 13.8346 26.5979 14.0036 26.5979 14.0036Z" fill="#00BB92"/>
<path d="M23.0168 19.1777C22.9811 17.3956 23.3678 16.2273 23.8988 15.4608C24.5884 15.1635 25.1638 15.1896 25.1638 15.1896C25.1638 15.1896 28.8425 14.8728 28.9497 20.2158C29.0025 22.8454 28.0459 25.0176 27.2863 26.3185C26.8911 26.9952 26.6247 27.7356 26.5018 28.5024L25.9173 28.5141L25.9161 28.4512C25.893 27.2991 25.5443 26.1796 24.9238 25.2087C24.1125 23.9394 23.0696 21.8073 23.0168 19.1777Z" fill="#00B083"/>
<path d="M21.1393 14.444C21.1393 14.444 24.9238 14.1181 25.0341 19.615C25.0884 22.3202 24.1043 24.555 23.3228 25.8933C22.725 26.917 22.4129 28.0822 22.4366 29.2674L22.4379 29.3322L21.4385 29.3522L20.4391 29.3722L20.4378 29.3075C20.414 28.1223 20.0553 26.9705 19.417 25.9717C18.5823 24.6659 17.5094 22.4724 17.4551 19.7671C17.3448 14.2702 21.1393 14.444 21.1393 14.444Z" fill="#00E98C"/>
<path d="M23.21 15.5566C23.21 15.5566 23.4341 15.5376 23.7744 15.5874C24.4461 16.3378 24.9931 17.5753 25.034 19.6149C25.0883 22.3202 24.1042 24.555 23.3227 25.8933C22.7249 26.9169 22.4127 28.0821 22.4365 29.2673L22.4378 29.3321L22.3916 29.333C22.2357 28.5368 21.9285 27.7741 21.4877 27.0843C20.653 25.7784 19.5801 23.585 19.5258 20.8797C19.4155 15.3828 23.21 15.5566 23.21 15.5566Z" fill="#00DC9B"/>
<path d="M17.1208 21.8084C18.1642 22.1533 19.3419 21.4287 19.3419 21.4287C19.3419 21.4287 18.8281 20.1449 17.7847 19.8C16.7413 19.4551 15.5636 20.1797 15.5636 20.1797C15.5636 20.1797 16.0774 21.4635 17.1208 21.8084Z" fill="#00DC9B"/>
<path d="M16.919 25.6617C17.7778 26.9898 19.5506 27.3703 20.8787 26.5116C21.2207 26.2905 22.4599 25.4892 22.8018 25.2682C24.13 24.4094 24.5105 22.6366 23.6517 21.3085C22.793 19.9803 21.0202 19.5998 19.692 20.4586C19.3501 20.6797 19.0714 20.9616 18.8601 21.2807C18.4823 21.3425 18.1109 21.4808 17.7689 21.702C16.4408 22.5608 16.0603 24.3336 16.919 25.6617Z" fill="#FFD700"/>
<path d="M28.4345 35.7428C26.7384 35.5205 25.9972 30.5045 26.7789 24.5393C27.5606 18.574 29.5693 13.9184 31.2654 14.1406C32.9615 14.3629 33.7027 19.3789 32.921 25.3442C32.1392 31.3094 30.1305 35.9651 28.4345 35.7428Z" fill="#FFD6A0"/>
<path d="M20.7357 23.5707L20.7357 22.8802C20.7357 22.1114 21.0419 21.4144 21.5389 20.904C22.104 20.3236 22.4308 19.5525 22.4308 18.7424L22.4308 18.6159L24.1789 18.0123L25.927 18.6159L25.927 18.7424C25.927 19.5525 26.2537 20.3236 26.8189 20.904C27.3159 21.4144 27.6221 22.1114 27.6221 22.8802L27.6221 23.5707L24.111 23.9248L20.7357 23.5707Z" fill="#FFF0F3"/>
<path d="M27.6221 23.5707L20.7357 23.5707L20.7357 27.0168L27.6221 27.0168L27.6221 23.5707Z" fill="#00E6FF"/>
<path d="M17.6118 44L33.3058 44C33.9619 44 34.4802 43.4434 34.4335 42.789L33.2467 26.1596C33.223 25.7771 32.7791 25.579 32.4786 25.8167L31.552 26.5497C31.3794 26.6862 31.1357 26.6862 30.9631 26.5497L29.6191 25.4866C29.4466 25.35 29.2028 25.35 29.0302 25.4866L27.6862 26.5497C27.5137 26.6862 27.2699 26.6862 27.0974 26.5497L25.7533 25.4866C25.5808 25.35 25.337 25.35 25.1645 25.4866L23.8204 26.5497C23.6479 26.6862 23.4041 26.6862 23.2316 26.5497L21.8876 25.4866C21.715 25.35 21.4712 25.35 21.2987 25.4866L19.9547 26.5497C19.7821 26.6862 19.5383 26.6862 19.3658 26.5497L18.4392 25.8167C18.1387 25.579 17.6948 25.7771 17.6711 26.1596L16.4843 42.789C16.4375 43.4434 16.9558 44 17.6118 44Z" fill="#FFA22C"/>
<path d="M16.4842 42.789L17.671 26.1595C17.6947 25.7771 18.1386 25.579 18.4391 25.8167L19.3269 26.519L18.295 40.9781C18.2483 41.6325 18.7666 42.1891 19.4226 42.1891L34.3906 42.1891L34.4335 42.7889C34.4801 43.4434 33.9619 44 33.3058 44L17.6118 44C16.9557 44 16.4375 43.4434 16.4842 42.789Z" fill="#FF9035"/>
<path d="M23.8323 35.4542L27.0168 35.4542C27.3251 35.4542 27.575 35.2043 27.575 34.8961L27.575 31.7115C27.575 31.4033 27.325 31.1534 27.0168 31.1534L23.8323 31.1534C23.524 31.1534 23.2742 31.4033 23.2742 31.7115L23.2742 34.8961C23.2741 35.2043 23.524 35.4542 23.8323 35.4542Z" fill="#FFF0F3"/>
<path d="M30.5667 24.3691C30.6923 24.3691 30.8175 24.3636 30.9419 24.3527C31.1911 24.3309 31.3752 24.1113 31.3535 23.8622C31.3317 23.6131 31.1107 23.4295 30.8631 23.4507C30.6161 23.4723 30.3652 23.4667 30.1169 23.4341C29.8287 23.3963 29.5474 23.3226 29.2807 23.2151C29.0488 23.1215 28.785 23.2337 28.6915 23.4656C28.598 23.6975 28.7102 23.9612 28.9421 24.0548C29.2796 24.1909 29.6353 24.2841 29.9991 24.3319C30.1875 24.3566 30.3774 24.3691 30.5667 24.3691Z" fill="#FFB154"/>
<path d="M30.879 21.9911C31.0044 21.9911 31.1297 21.9856 31.2541 21.9748C31.5031 21.953 31.6874 21.7335 31.6656 21.4844C31.6438 21.2353 31.425 21.0512 31.1752 21.0728C30.9283 21.0944 30.6772 21.0888 30.4291 21.0562C30.1408 21.0184 29.8596 20.9447 29.5928 20.8371C29.3607 20.7436 29.0971 20.8559 29.0036 21.0878C28.9101 21.3197 29.0223 21.5834 29.2542 21.6769C29.5918 21.813 29.9474 21.9062 30.3113 21.9539C30.4997 21.9787 30.6896 21.9911 30.879 21.9911Z" fill="#FFB154"/>
<path d="M31.0143 19.5811C31.1047 19.5811 31.195 19.5772 31.2847 19.5694C31.5339 19.5476 31.718 19.3279 31.6962 19.0789C31.6745 18.8297 31.4547 18.6454 31.2058 18.6674C31.0462 18.6813 30.8839 18.6778 30.7233 18.6566C30.537 18.6322 30.355 18.5846 30.1827 18.5151C29.9508 18.4215 29.687 18.5337 29.5935 18.7656C29.5 18.9975 29.6122 19.2613 29.8441 19.3548C30.0873 19.4529 30.3435 19.52 30.6056 19.5544C30.7412 19.5722 30.878 19.5811 31.0143 19.5811Z" fill="#FFB154"/>
<path d="M23.2742 38.1068L27.575 38.1068C27.8251 38.1068 28.0277 37.9041 28.0277 37.6541C28.0277 37.4041 27.825 37.2014 27.575 37.2014L23.2742 37.2014C23.0241 37.2014 22.8215 37.4041 22.8215 37.6541C22.8215 37.9041 23.0242 38.1068 23.2742 38.1068Z" fill="#FF9035"/>
<path d="M23.9373 40.3067L26.9118 40.3067C27.1619 40.3067 27.3645 40.104 27.3645 39.854C27.3645 39.604 27.1618 39.4013 26.9118 39.4013L23.9373 39.4013C23.6872 39.4013 23.4846 39.604 23.4846 39.854C23.4846 40.104 23.6873 40.3067 23.9373 40.3067Z" fill="#FF9035"/>
<path d="M21.8635 16.9353L26.4944 16.9353C26.6051 16.9353 26.6948 17.025 26.6948 17.1356L26.6948 18.5967C26.6948 18.7074 26.6051 18.7971 26.4944 18.7971L21.8635 18.7971C21.7529 18.7971 21.6631 18.7074 21.6631 18.5967L21.6631 17.1356C21.6631 17.025 21.7529 16.9353 21.8635 16.9353Z" fill="#00E6FF"/>
</g>
<path d="M54.208 14.8L53.376 15.76C52.992 15.4187 52.464 15.12 51.792 14.864C51.1307 14.5973 50.368 14.464 49.504 14.464C48.7467 14.464 48.1013 14.6133 47.568 14.912C47.0453 15.2 46.784 15.648 46.784 16.256C46.784 16.4693 46.8213 16.6613 46.896 16.832C46.9813 16.992 47.12 17.1253 47.312 17.232C47.5147 17.328 47.6907 17.408 47.84 17.472C47.9893 17.536 48.2347 17.5893 48.576 17.632C48.928 17.6747 49.184 17.7013 49.344 17.712C49.504 17.7227 49.792 17.7387 50.208 17.76C50.592 17.7813 50.8747 17.8027 51.056 17.824C51.248 17.8453 51.5413 17.888 51.936 17.952C52.3307 18.0053 52.64 18.0747 52.864 18.16C53.088 18.2347 53.3493 18.352 53.648 18.512C53.9573 18.6613 54.192 18.8373 54.352 19.04C54.5227 19.2427 54.6667 19.504 54.784 19.824C54.912 20.1333 54.976 20.48 54.976 20.864C54.976 21.6427 54.7573 22.2933 54.32 22.816C53.8827 23.3387 53.3227 23.712 52.64 23.936C51.9573 24.16 51.1787 24.272 50.304 24.272C48.2027 24.272 46.3733 23.5573 44.816 22.128L45.664 21.168C47.04 22.448 48.5973 23.088 50.336 23.088C51.2853 23.088 52.064 22.9173 52.672 22.576C53.28 22.224 53.584 21.712 53.584 21.04C53.584 20.6667 53.4987 20.3573 53.328 20.112C53.1573 19.856 52.896 19.664 52.544 19.536C52.192 19.3973 51.8453 19.3013 51.504 19.248C51.1627 19.1947 50.7307 19.1467 50.208 19.104C49.696 19.072 49.3067 19.0453 49.04 19.024C48.784 18.992 48.4267 18.944 47.968 18.88C47.52 18.8053 47.1733 18.7093 46.928 18.592C46.6827 18.4747 46.4267 18.3253 46.16 18.144C45.8933 17.952 45.696 17.712 45.568 17.424C45.4507 17.1253 45.392 16.7787 45.392 16.384C45.392 15.8187 45.5147 15.328 45.76 14.912C46.016 14.4853 46.352 14.16 46.768 13.936C47.1947 13.712 47.6373 13.5467 48.096 13.44C48.5653 13.3333 49.0507 13.28 49.552 13.28C50.5333 13.28 51.4347 13.4347 52.256 13.744C53.0773 14.0533 53.728 14.4053 54.208 14.8ZM64.0514 17.488L63.1874 18.352C62.5367 17.7013 61.742 17.376 60.8034 17.376C60.0674 17.376 59.4434 17.6427 58.9314 18.176C58.43 18.6987 58.1794 19.3813 58.1794 20.224C58.1794 21.0773 58.4407 21.7707 58.9634 22.304C59.486 22.8267 60.1314 23.088 60.8994 23.088C61.8274 23.088 62.6487 22.72 63.3634 21.984L64.2274 22.784C63.9714 23.0933 63.5447 23.4133 62.9474 23.744C62.35 24.064 61.63 24.224 60.7874 24.224C59.678 24.224 58.7287 23.856 57.9394 23.12C57.1607 22.3733 56.7714 21.408 56.7714 20.224C56.7714 19.0613 57.1607 18.112 57.9394 17.376C58.718 16.6293 59.6727 16.256 60.8034 16.256C62.0727 16.256 63.1554 16.6667 64.0514 17.488ZM67.6426 24H66.3786V12.8H67.6426V17.504C68.4106 16.672 69.2586 16.256 70.1866 16.256C71.0826 16.256 71.8026 16.5067 72.3466 17.008C72.9013 17.4987 73.1786 18.1333 73.1786 18.912V24H71.8986V18.912C71.8986 18.4853 71.728 18.1227 71.3866 17.824C71.0453 17.5253 70.608 17.376 70.0746 17.376C69.2426 17.376 68.432 17.8027 67.6426 18.656V24ZM82.1309 21.984L82.9789 22.816C82.5415 23.232 82.0029 23.5733 81.3629 23.84C80.7229 24.096 80.0402 24.224 79.3149 24.224C78.1309 24.224 77.1922 23.8507 76.4989 23.104C75.8055 22.3573 75.4589 21.4293 75.4589 20.32C75.4589 19.1787 75.8322 18.2187 76.5789 17.44C77.3362 16.6507 78.2855 16.256 79.4269 16.256C80.4295 16.256 81.3042 16.576 82.0509 17.216C82.8082 17.856 83.1922 18.7947 83.2029 20.032C83.2029 20.2027 83.1975 20.3307 83.1869 20.416H76.7389C76.7602 21.184 77.0109 21.824 77.4909 22.336C77.9709 22.8373 78.6215 23.088 79.4429 23.088C80.5202 23.088 81.4162 22.72 82.1309 21.984ZM79.3629 17.328C78.7122 17.328 78.1629 17.5253 77.7149 17.92C77.2775 18.304 76.9842 18.8 76.8349 19.408H81.7949C81.7842 18.7467 81.5335 18.2347 81.0429 17.872C80.5522 17.5093 79.9922 17.328 79.3629 17.328ZM92.7345 24H91.5505C91.4758 23.6693 91.4385 23.3013 91.4385 22.896C91.2038 23.216 90.8465 23.52 90.3665 23.808C89.8865 24.0853 89.3532 24.224 88.7665 24.224C87.7105 24.224 86.8145 23.856 86.0785 23.12C85.3532 22.3733 84.9905 21.408 84.9905 20.224C84.9905 19.0613 85.3585 18.112 86.0945 17.376C86.8305 16.6293 87.7212 16.256 88.7665 16.256C89.7052 16.256 90.5585 16.6293 91.3265 17.376V12.8H92.6065V22.08C92.6065 22.9227 92.6492 23.5627 92.7345 24ZM88.8945 17.376C88.1905 17.376 87.5985 17.6427 87.1185 18.176C86.6385 18.6987 86.3985 19.3813 86.3985 20.224C86.3985 21.0773 86.6385 21.7707 87.1185 22.304C87.5985 22.8373 88.1905 23.104 88.8945 23.104C89.4492 23.104 89.9398 22.976 90.3665 22.72C90.7932 22.464 91.1132 22.2027 91.3265 21.936V18.544C90.5478 17.7653 89.7372 17.376 88.8945 17.376ZM100.99 16.496H102.27V22.08C102.27 22.9227 102.312 23.5627 102.398 24H101.23C101.155 23.6693 101.118 23.2853 101.118 22.848C100.286 23.7653 99.3684 24.224 98.3658 24.224C97.5338 24.224 96.8404 23.9787 96.2858 23.488C95.7311 22.9867 95.4538 22.352 95.4538 21.584V16.496H96.7498V21.584C96.7498 22.0107 96.9204 22.3733 97.2618 22.672C97.6031 22.96 98.0351 23.104 98.5578 23.104C99.4218 23.104 100.232 22.6827 100.99 21.84V16.496ZM106.645 24H105.365V12.8H106.645V24ZM115.834 21.984L116.682 22.816C116.245 23.232 115.706 23.5733 115.066 23.84C114.426 24.096 113.743 24.224 113.018 24.224C111.834 24.224 110.895 23.8507 110.202 23.104C109.509 22.3573 109.162 21.4293 109.162 20.32C109.162 19.1787 109.535 18.2187 110.282 17.44C111.039 16.6507 111.989 16.256 113.13 16.256C114.133 16.256 115.007 16.576 115.754 17.216C116.511 17.856 116.895 18.7947 116.906 20.032C116.906 20.2027 116.901 20.3307 116.89 20.416H110.442C110.463 21.184 110.714 21.824 111.194 22.336C111.674 22.8373 112.325 23.088 113.146 23.088C114.223 23.088 115.119 22.72 115.834 21.984ZM113.066 17.328C112.415 17.328 111.866 17.5253 111.418 17.92C110.981 18.304 110.687 18.8 110.538 19.408H115.498C115.487 18.7467 115.237 18.2347 114.746 17.872C114.255 17.5093 113.695 17.328 113.066 17.328ZM128.463 16.496H129.759L124.511 27.36H123.199L125.071 23.648L121.855 16.496H123.295L125.727 22.24H125.791L128.463 16.496ZM131.021 20.224C131.021 19.104 131.4 18.1653 132.157 17.408C132.925 16.64 133.885 16.256 135.037 16.256C136.2 16.256 137.16 16.64 137.917 17.408C138.685 18.1653 139.069 19.104 139.069 20.224C139.069 21.3547 138.685 22.304 137.917 23.072C137.16 23.84 136.2 24.224 135.037 24.224C133.875 24.224 132.915 23.84 132.157 23.072C131.4 22.304 131.021 21.3547 131.021 20.224ZM132.349 20.224C132.349 21.0453 132.6 21.7387 133.101 22.304C133.603 22.8693 134.248 23.152 135.037 23.152C135.837 23.152 136.488 22.8693 136.989 22.304C137.501 21.7387 137.757 21.0453 137.757 20.224C137.757 19.424 137.501 18.7413 136.989 18.176C136.488 17.6107 135.837 17.328 135.037 17.328C134.248 17.328 133.603 17.6107 133.101 18.176C132.6 18.7413 132.349 19.424 132.349 20.224ZM146.88 16.496H148.16V22.08C148.16 22.9227 148.203 23.5627 148.288 24H147.12C147.046 23.6693 147.008 23.2853 147.008 22.848C146.176 23.7653 145.259 24.224 144.256 24.224C143.424 24.224 142.731 23.9787 142.176 23.488C141.622 22.9867 141.344 22.352 141.344 21.584V16.496H142.64V21.584C142.64 22.0107 142.811 22.3733 143.152 22.672C143.494 22.96 143.926 23.104 144.448 23.104C145.312 23.104 146.123 22.6827 146.88 21.84V16.496ZM152.456 24H151.176V18.4C151.176 17.7387 151.101 17.104 150.952 16.496H152.136C152.243 16.8907 152.301 17.3227 152.312 17.792C152.995 16.768 153.757 16.256 154.6 16.256C155.133 16.256 155.512 16.384 155.736 16.64L155.32 17.808C155.085 17.6053 154.749 17.504 154.312 17.504C153.715 17.504 153.096 17.9627 152.456 18.88V24ZM166.873 24.48V22.992C166.084 23.8133 165.22 24.224 164.281 24.224C163.236 24.224 162.351 23.856 161.625 23.12C160.9 22.384 160.537 21.4347 160.537 20.272C160.537 19.0773 160.905 18.112 161.641 17.376C162.377 16.6293 163.284 16.256 164.361 16.256C164.937 16.256 165.46 16.4053 165.929 16.704C166.409 17.0027 166.761 17.3173 166.985 17.648C166.985 17.232 167.039 16.8427 167.145 16.48H168.329C168.212 16.96 168.153 17.6 168.153 18.4V24.48C168.153 25.3867 167.823 26.1387 167.161 26.736C166.511 27.3333 165.588 27.632 164.393 27.632C162.932 27.632 161.796 27.2 160.985 26.336L161.753 25.584C162.383 26.2347 163.263 26.56 164.393 26.56C165.183 26.56 165.791 26.3627 166.217 25.968C166.655 25.584 166.873 25.088 166.873 24.48ZM164.393 23.104C165.257 23.104 166.084 22.72 166.873 21.952V18.56C166.745 18.4 166.591 18.2453 166.409 18.096C166.228 17.936 165.956 17.776 165.593 17.616C165.231 17.456 164.857 17.376 164.473 17.376C163.769 17.376 163.172 17.6427 162.681 18.176C162.191 18.7093 161.945 19.408 161.945 20.272C161.945 21.1147 162.18 21.7973 162.649 22.32C163.119 22.8427 163.7 23.104 164.393 23.104ZM172.425 24H171.145V18.4C171.145 17.7387 171.07 17.104 170.921 16.496H172.105C172.211 16.8907 172.27 17.3227 172.281 17.792C172.963 16.768 173.726 16.256 174.569 16.256C175.102 16.256 175.481 16.384 175.705 16.64L175.289 17.808C175.054 17.6053 174.718 17.504 174.281 17.504C173.683 17.504 173.065 17.9627 172.425 18.88V24ZM176.443 20.224C176.443 19.104 176.822 18.1653 177.579 17.408C178.347 16.64 179.307 16.256 180.459 16.256C181.622 16.256 182.582 16.64 183.339 17.408C184.107 18.1653 184.491 19.104 184.491 20.224C184.491 21.3547 184.107 22.304 183.339 23.072C182.582 23.84 181.622 24.224 180.459 24.224C179.297 24.224 178.337 23.84 177.579 23.072C176.822 22.304 176.443 21.3547 176.443 20.224ZM177.771 20.224C177.771 21.0453 178.022 21.7387 178.523 22.304C179.025 22.8693 179.67 23.152 180.459 23.152C181.259 23.152 181.91 22.8693 182.411 22.304C182.923 21.7387 183.179 21.0453 183.179 20.224C183.179 19.424 182.923 18.7413 182.411 18.176C181.91 17.6107 181.259 17.328 180.459 17.328C179.67 17.328 179.025 17.6107 178.523 18.176C178.022 18.7413 177.771 19.424 177.771 20.224ZM193.598 17.488L192.734 18.352C192.084 17.7013 191.289 17.376 190.35 17.376C189.614 17.376 188.99 17.6427 188.478 18.176C187.977 18.6987 187.726 19.3813 187.726 20.224C187.726 21.0773 187.988 21.7707 188.51 22.304C189.033 22.8267 189.678 23.088 190.446 23.088C191.374 23.088 192.196 22.72 192.91 21.984L193.774 22.784C193.518 23.0933 193.092 23.4133 192.494 23.744C191.897 24.064 191.177 24.224 190.334 24.224C189.225 24.224 188.276 23.856 187.486 23.12C186.708 22.3733 186.318 21.408 186.318 20.224C186.318 19.0613 186.708 18.112 187.486 17.376C188.265 16.6293 189.22 16.256 190.35 16.256C191.62 16.256 192.702 16.6667 193.598 17.488ZM202.022 21.984L202.87 22.816C202.432 23.232 201.894 23.5733 201.254 23.84C200.614 24.096 199.931 24.224 199.206 24.224C198.022 24.224 197.083 23.8507 196.39 23.104C195.696 22.3573 195.35 21.4293 195.35 20.32C195.35 19.1787 195.723 18.2187 196.47 17.44C197.227 16.6507 198.176 16.256 199.318 16.256C200.32 16.256 201.195 16.576 201.942 17.216C202.699 17.856 203.083 18.7947 203.094 20.032C203.094 20.2027 203.088 20.3307 203.078 20.416H196.63C196.651 21.184 196.902 21.824 197.382 22.336C197.862 22.8373 198.512 23.088 199.334 23.088C200.411 23.088 201.307 22.72 202.022 21.984ZM199.254 17.328C198.603 17.328 198.054 17.5253 197.606 17.92C197.168 18.304 196.875 18.8 196.726 19.408H201.686C201.675 18.7467 201.424 18.2347 200.934 17.872C200.443 17.5093 199.883 17.328 199.254 17.328ZM206.737 24H205.457V18.4C205.457 17.7387 205.382 17.104 205.233 16.496H206.417C206.524 16.8907 206.582 17.3227 206.593 17.792C207.276 16.768 208.038 16.256 208.881 16.256C209.414 16.256 209.793 16.384 210.017 16.64L209.601 17.808C209.366 17.6053 209.03 17.504 208.593 17.504C207.996 17.504 207.377 17.9627 206.737 18.88V24ZM217.401 16.496H218.697L213.449 27.36H212.137L214.009 23.648L210.793 16.496H212.233L214.665 22.24H214.729L217.401 16.496ZM52.672 43H51.488C51.4133 42.6693 51.376 42.3013 51.376 41.896C51.1413 42.216 50.784 42.52 50.304 42.808C49.824 43.0853 49.2907 43.224 48.704 43.224C47.648 43.224 46.752 42.856 46.016 42.12C45.2907 41.3733 44.928 40.408 44.928 39.224C44.928 38.0613 45.296 37.112 46.032 36.376C46.768 35.6293 47.6587 35.256 48.704 35.256C49.6427 35.256 50.496 35.6293 51.264 36.376V31.8H52.544V41.08C52.544 41.9227 52.5867 42.5627 52.672 43ZM48.832 36.376C48.128 36.376 47.536 36.6427 47.056 37.176C46.576 37.6987 46.336 38.3813 46.336 39.224C46.336 40.0773 46.576 40.7707 47.056 41.304C47.536 41.8373 48.128 42.104 48.832 42.104C49.3867 42.104 49.8773 41.976 50.304 41.72C50.7307 41.464 51.0507 41.2027 51.264 40.936V37.544C50.4853 36.7653 49.6747 36.376 48.832 36.376ZM61.6153 40.984L62.4633 41.816C62.0259 42.232 61.4873 42.5733 60.8473 42.84C60.2073 43.096 59.5246 43.224 58.7993 43.224C57.6153 43.224 56.6766 42.8507 55.9833 42.104C55.2899 41.3573 54.9433 40.4293 54.9433 39.32C54.9433 38.1787 55.3166 37.2187 56.0633 36.44C56.8206 35.6507 57.7699 35.256 58.9113 35.256C59.9139 35.256 60.7886 35.576 61.5353 36.216C62.2926 36.856 62.6766 37.7947 62.6873 39.032C62.6873 39.2027 62.6819 39.3307 62.6713 39.416H56.2233C56.2446 40.184 56.4953 40.824 56.9753 41.336C57.4553 41.8373 58.1059 42.088 58.9273 42.088C60.0046 42.088 60.9006 41.72 61.6153 40.984ZM58.8473 36.328C58.1966 36.328 57.6473 36.5253 57.1993 36.92C56.7619 37.304 56.4686 37.8 56.3193 38.408H61.2793C61.2686 37.7467 61.0179 37.2347 60.5273 36.872C60.0366 36.5093 59.4766 36.328 58.8473 36.328ZM66.4109 43H65.1309V31.8H66.4109V43ZM70.7676 43H69.5036V35.496H70.7676V43ZM69.5356 33.288C69.3756 33.1387 69.2956 32.9573 69.2956 32.744C69.2956 32.5307 69.3756 32.3493 69.5356 32.2C69.6956 32.0507 69.893 31.976 70.1276 31.976C70.3623 31.976 70.5596 32.0507 70.7196 32.2C70.8903 32.3493 70.9756 32.5307 70.9756 32.744C70.9756 32.9573 70.8903 33.1387 70.7196 33.288C70.5596 33.4373 70.3623 33.512 70.1276 33.512C69.893 33.512 69.6956 33.4373 69.5356 33.288ZM79.146 35.496H80.458L77.162 43H76.042L72.762 35.496H74.202L76.586 41.256H76.682L79.146 35.496ZM88.4278 40.984L89.2758 41.816C88.8384 42.232 88.2998 42.5733 87.6598 42.84C87.0198 43.096 86.3371 43.224 85.6118 43.224C84.4278 43.224 83.4891 42.8507 82.7958 42.104C82.1024 41.3573 81.7558 40.4293 81.7558 39.32C81.7558 38.1787 82.1291 37.2187 82.8758 36.44C83.6331 35.6507 84.5824 35.256 85.7238 35.256C86.7264 35.256 87.6011 35.576 88.3478 36.216C89.1051 36.856 89.4891 37.7947 89.4998 39.032C89.4998 39.2027 89.4944 39.3307 89.4838 39.416H83.0358C83.0571 40.184 83.3078 40.824 83.7878 41.336C84.2678 41.8373 84.9184 42.088 85.7398 42.088C86.8171 42.088 87.7131 41.72 88.4278 40.984ZM85.6598 36.328C85.0091 36.328 84.4598 36.5253 84.0118 36.92C83.5744 37.304 83.2811 37.8 83.1318 38.408H88.0918C88.0811 37.7467 87.8304 37.2347 87.3398 36.872C86.8491 36.5093 86.2891 36.328 85.6598 36.328ZM93.1434 43H91.8634V37.4C91.8634 36.7387 91.7887 36.104 91.6394 35.496H92.8234C92.93 35.8907 92.9887 36.3227 92.9994 36.792C93.682 35.768 94.4447 35.256 95.2874 35.256C95.8207 35.256 96.1994 35.384 96.4234 35.64L96.0074 36.808C95.7727 36.6053 95.4367 36.504 94.9994 36.504C94.402 36.504 93.7834 36.9627 93.1434 37.88V43ZM99.4551 43H98.1911V35.496H99.4551V43ZM98.2231 33.288C98.0631 33.1387 97.9831 32.9573 97.9831 32.744C97.9831 32.5307 98.0631 32.3493 98.2231 32.2C98.3831 32.0507 98.5805 31.976 98.8151 31.976C99.0498 31.976 99.2471 32.0507 99.4071 32.2C99.5778 32.3493 99.6631 32.5307 99.6631 32.744C99.6631 32.9573 99.5778 33.1387 99.4071 33.288C99.2471 33.4373 99.0498 33.512 98.8151 33.512C98.5805 33.512 98.3831 33.4373 98.2231 33.288ZM108.522 40.984L109.37 41.816C108.932 42.232 108.394 42.5733 107.754 42.84C107.114 43.096 106.431 43.224 105.706 43.224C104.522 43.224 103.583 42.8507 102.89 42.104C102.196 41.3573 101.85 40.4293 101.85 39.32C101.85 38.1787 102.223 37.2187 102.97 36.44C103.727 35.6507 104.676 35.256 105.818 35.256C106.82 35.256 107.695 35.576 108.442 36.216C109.199 36.856 109.583 37.7947 109.594 39.032C109.594 39.2027 109.588 39.3307 109.578 39.416H103.13C103.151 40.184 103.402 40.824 103.882 41.336C104.362 41.8373 105.012 42.088 105.834 42.088C106.911 42.088 107.807 41.72 108.522 40.984ZM105.754 36.328C105.103 36.328 104.554 36.5253 104.106 36.92C103.668 37.304 103.375 37.8 103.226 38.408H108.186C108.175 37.7467 107.924 37.2347 107.434 36.872C106.943 36.5093 106.383 36.328 105.754 36.328ZM117.941 36.152L117.445 37.128C117.114 36.9253 116.688 36.7387 116.165 36.568C115.653 36.3867 115.136 36.296 114.613 36.296C114.122 36.296 113.696 36.392 113.333 36.584C112.981 36.7653 112.805 37.0373 112.805 37.4C112.805 37.6133 112.869 37.7947 112.997 37.944C113.125 38.0827 113.312 38.184 113.557 38.248C113.813 38.312 114.037 38.3547 114.229 38.376C114.421 38.3973 114.656 38.4133 114.933 38.424C115.242 38.4347 115.488 38.4507 115.669 38.472C115.85 38.4933 116.101 38.5307 116.421 38.584C116.741 38.6267 117.002 38.7013 117.205 38.808C117.408 38.904 117.616 39.032 117.829 39.192C118.042 39.3413 118.202 39.5493 118.309 39.816C118.416 40.072 118.469 40.3653 118.469 40.696C118.469 41.528 118.138 42.1627 117.477 42.6C116.826 43.0267 115.984 43.24 114.949 43.24C113.616 43.24 112.389 42.8507 111.269 42.072L111.765 41.112C112.853 41.8267 113.909 42.184 114.933 42.184C115.594 42.184 116.133 42.0667 116.549 41.832C116.976 41.5973 117.189 41.2613 117.189 40.824C117.189 40.5787 117.12 40.376 116.981 40.216C116.842 40.0453 116.64 39.9227 116.373 39.848C116.117 39.7733 115.888 39.7253 115.685 39.704C115.493 39.6827 115.242 39.6613 114.933 39.64C114.592 39.6187 114.325 39.5973 114.133 39.576C113.941 39.5547 113.69 39.5227 113.381 39.48C113.072 39.4267 112.826 39.352 112.645 39.256C112.464 39.16 112.277 39.0427 112.085 38.904C111.893 38.7547 111.754 38.568 111.669 38.344C111.584 38.1093 111.541 37.8427 111.541 37.544C111.541 36.9893 111.701 36.5307 112.021 36.168C112.352 35.8053 112.73 35.56 113.157 35.432C113.594 35.2933 114.074 35.224 114.597 35.224C115.237 35.224 115.866 35.3253 116.485 35.528C117.104 35.72 117.589 35.928 117.941 36.152Z" fill="#005151"/>
<defs>
<clipPath id="clip0_6_712">
<rect width="30" height="30" fill="white" transform="matrix(-1 -8.74228e-08 -8.74228e-08 1 40 14)"/>
</clipPath>
</defs>
</svg>
