<svg width="212" height="212" viewBox="0 0 212 212" fill="none" xmlns="http://www.w3.org/2000/svg">
<g clip-path="url(#clip0_3_516)">
<path d="M73.8855 175.569L73.2478 73.3536C73.2337 70.8823 77.0026 70.86 77.0167 73.3313L77.02 73.978L148.701 104.272C150.496 102.74 152.967 105.433 151.19 107.093L76.4413 176.834C75.2949 176.848 74.2932 177.053 73.8855 175.569Z" fill="#FCBE00"/>
<path d="M73.4139 99.9381L73.3762 94.2505C88.9799 110.792 113.415 121.221 136.193 121.085L132.023 124.974C110.83 123.687 88.9486 114.34 73.4139 99.9381Z" fill="#E3AB00"/>
<path d="M73.5411 120.288L73.5075 115.261C86.5913 126.268 103.681 133.613 120.714 135.526L117.043 138.953C101.449 136.454 86.06 129.844 73.5411 120.288Z" fill="#E3AB00"/>
<path d="M73.6624 139.731L73.633 135.123C83.2955 141.774 94.6407 146.658 106.14 149.124L102.779 152.262C92.5327 149.69 82.5443 145.394 73.6624 139.731Z" fill="#E3AB00"/>
<path d="M73.7796 158.489L73.7518 154.127C75.1773 154.754 76.8368 155.82 78.5345 156.627C82.8495 158.754 87.4 160.575 91.9401 161.992C92.0423 162.025 92.1404 162.059 92.2372 162.097L89.0818 165.038C84.827 163.609 80.6955 161.904 76.6674 159.921C75.8004 159.476 74.7692 159 73.7796 158.489Z" fill="#E3AB00"/>
<path d="M136.904 108.837C119.811 106.848 95.3995 96.5309 82.0636 85.6602C67.5351 73.8143 71.4997 64.4334 90.1202 66.5971C107.21 68.5851 131.621 78.9019 144.96 89.7738C159.486 101.618 155.521 110.999 136.904 108.837Z" fill="#E3AB00"/>
<path d="M107.827 23.4486L107.263 29.8722L113.34 32.427L113.343 32.4212C115.013 33.1236 114.86 35.6267 112.942 36.0183L106.613 37.4784L106.061 44.0436L106.064 44.0449C105.913 45.8318 103.467 46.5293 102.482 44.6993L99.1793 39.1992L92.7582 40.7059L92.7586 40.7129C91.0005 41.124 89.6365 39.011 90.9838 37.5521L95.2329 32.6689L91.8183 27.0293L91.8171 27.0322C90.8859 25.4948 92.4597 23.4999 94.3177 24.3876L100.232 26.9006L104.539 21.9122L104.538 21.9052C105.783 20.4642 108.137 21.5823 107.827 23.4486Z" fill="#FC6DAE"/>
<path d="M87.5415 80.1968C86.7972 82.5559 90.3807 83.6913 91.1303 81.3277C91.1645 81.2226 102.972 44.0324 97.7037 42.8847C96.3344 42.586 95.4823 43.6327 95.4401 44.6939C94.8538 59.0811 92.2374 65.385 87.5415 80.1968Z" fill="#55C8FF"/>
<path d="M132.34 146.039C134.495 147.275 136.371 144.007 134.221 142.768C134.185 142.749 122.324 135.708 122.582 149.827L122.579 149.826C122.622 152.132 122.242 154.372 121.611 154.378L121.609 154.374C117.933 153.094 119.521 149.401 116.641 149.956C113.591 150.545 115.634 155.318 119.038 157.405C119.823 157.857 120.766 158.156 121.639 158.15C125.207 158.118 126.421 154.178 126.35 149.757L126.345 149.754C126.209 142.4 132.324 146.029 132.34 146.039Z" fill="#CCCCCC"/>
<path d="M141.789 141.811L136.066 148.857L136.072 148.86C135.17 149.967 133.384 149.725 132.842 148.341L129.498 140.103C128.968 138.796 130.015 137.313 131.551 137.532L140.653 138.633C142.213 138.821 142.85 140.706 141.789 141.811Z" fill="#CCCCCC"/>
<path d="M164.999 49.8815L164.436 56.3023L170.514 58.8571L170.516 58.8513C172.186 59.5536 172.03 62.0555 170.112 62.4501L163.783 63.9072L163.233 70.4766L163.237 70.4749C163.086 72.2619 160.639 72.9623 159.654 71.1323L156.348 65.6309L149.929 67.1347L149.932 67.143C148.173 67.557 146.81 65.441 148.156 63.9851L152.403 59.0978L148.99 53.4623L148.987 53.461C148.059 51.9248 149.632 49.9329 151.49 50.8206L157.405 53.3307L161.712 48.3423L161.708 48.337C162.956 46.8943 165.311 48.0124 164.999 49.8815Z" fill="#FC6DAE"/>
<path d="M132.591 98.8501C131.416 101.034 134.634 102.759 135.9 100.635C140.655 92.6732 148.45 75.0292 155.237 70.6759C156.339 69.967 157.031 68.3062 155.58 67.3446C151.085 64.366 132.643 98.7524 132.591 98.8501Z" fill="#55C8FF"/>
<path d="M173.785 126.968C175.613 128.345 176.934 130.204 177.843 132.449L177.848 132.445C179.154 135.666 179.089 139.163 177.88 142.193L177.886 142.196C176.668 145.232 174.277 147.81 171.005 149.138C162.279 152.68 152.27 147.681 144.671 144.47L144.669 144.475L139.662 142.223L139.657 142.227C137.328 141.185 139.492 137.777 140.708 134.706L140.702 134.703C143.802 126.924 147.929 116.416 156.34 113.005C159.626 111.669 163.111 111.858 166.102 113.19L166.114 113.188C171.333 115.51 174.645 121.424 173.785 126.968Z" fill="#FF0000"/>
<path d="M181.778 74.2985C189.846 77.7084 189.769 89.2273 181.646 92.5213C173.526 95.8195 165.443 87.6127 168.852 79.5442C170.973 74.5263 176.76 72.1778 181.778 74.2985Z" fill="#92E200"/>
<path d="M80.4127 18.4427C88.4813 21.8527 88.405 33.3686 80.2815 36.6656C72.162 39.9609 64.0789 31.754 67.4888 23.6855C69.6095 18.6677 75.3949 16.322 80.4127 18.4427Z" fill="#92E200"/>
<path d="M55.0259 105.142L53.9641 114.159L53.9554 114.155C53.7895 115.574 55.2079 116.685 56.5778 116.11L64.8168 112.767C66.1233 112.236 66.4575 110.452 65.2299 109.503L58.0965 103.743C56.8749 102.755 55.0789 103.611 55.0259 105.142Z" fill="#CCCCCC"/>
<path d="M81.4816 74.7163C81.1181 77.168 84.8403 77.7167 85.2038 75.265C85.2109 75.1997 88.5703 52.8129 75.9883 45.5798C73.8332 44.3447 71.9561 47.6147 74.1099 48.8528C84.459 54.8007 81.4879 74.6609 81.4816 74.7163Z" fill="#92E200"/>
<path d="M138.973 99.2628C137.467 101.225 140.451 103.514 141.958 101.549C141.994 101.503 154.166 85.531 165.644 88.8077C168.033 89.4895 169.07 85.8644 166.681 85.1826C152.727 81.1972 139.012 99.2109 138.973 99.2628Z" fill="#92E200"/>
<path d="M132.262 43.3467C134.087 44.1181 135.433 45.5643 136.127 47.2747L136.134 47.2742C138.54 53.208 132.536 59.1012 126.654 56.6156C120.411 53.977 121.169 45.2041 126.907 43.2519C128.582 42.6177 130.492 42.5986 132.262 43.3467Z" fill="#55C8FF"/>
<path d="M111.68 54.4769C117.57 56.9662 117.514 65.38 111.588 67.7854C107.903 69.2808 103.711 67.5161 102.208 63.8179L102.204 63.8196C99.7984 57.8928 105.791 51.9877 111.68 54.4769Z" fill="#55C8FF"/>
<path d="M137.031 65.6245C143.272 68.2619 142.518 77.0332 136.778 78.9883C127.557 82.1284 123.082 69.0202 131.521 65.5903L131.516 65.585C133.226 64.8937 135.197 64.8495 137.031 65.6245Z" fill="#55C8FF"/>
<path d="M136.516 56.9385C134.534 58.4295 136.805 61.4346 138.78 59.944C141.046 58.2348 144.111 56.7029 142.601 54.6992C141.088 52.6901 138.775 55.2297 136.516 56.9385Z" fill="#FC6DAE"/>
<path d="M112.585 46.3979C110.605 47.893 112.876 50.8981 114.852 49.4047C117.118 47.6954 120.183 46.1635 118.672 44.1627C117.156 42.1524 114.843 44.692 112.585 46.3979Z" fill="#FC6DAE"/>
<path d="M171.639 101.335C169.659 102.828 171.929 105.836 173.905 104.342C176.168 102.632 179.236 101.101 177.727 99.0974C176.21 97.0871 173.897 99.6267 171.639 101.335Z" fill="#FC6DAE"/>
<path d="M140.003 41.8685C138.024 43.3607 140.293 46.3687 142.27 44.8752C144.536 43.166 147.601 41.6341 146.091 39.6304C144.575 37.6201 142.262 40.1597 140.003 41.8685Z" fill="#FC6DAE"/>
<path d="M119.458 31.9051C117.479 33.3974 119.748 36.4053 121.725 34.9119C123.988 33.2014 127.055 31.6707 125.546 29.667C124.029 27.6568 121.717 30.1964 119.458 31.9051Z" fill="#FC6DAE"/>
<path d="M180.675 60.7648C178.696 62.257 180.965 65.265 182.942 63.7715C185.208 62.0623 188.273 60.5303 186.763 58.5266C185.247 56.5164 182.934 59.056 180.675 60.7648Z" fill="#FC6DAE"/>
<path d="M43.3729 71.8524C41.1108 71.5008 38.8597 71.8504 36.6134 72.762L36.613 72.755C33.3928 74.0643 30.9298 76.5472 29.5993 79.5259L29.5935 79.5234C28.2651 82.5132 28.082 86.0246 29.4102 89.2971C32.9514 98.0224 43.5117 101.717 51.1109 104.929L51.1085 104.935L56.2129 106.955L56.2134 106.962C58.5838 107.906 59.5197 103.979 60.8748 100.966L60.8806 100.968C64.2993 93.3236 68.959 83.0413 65.5437 74.6322C64.2118 71.3444 61.6475 68.9768 58.6071 67.7602L58.6009 67.7507C53.2981 65.6257 46.7485 67.3718 43.3729 71.8524Z" fill="#FF0000"/>
<path d="M58.5786 114.866C56.191 114.182 57.2267 110.559 59.6168 111.238C59.6528 111.25 72.9681 114.849 62.6629 124.504L62.6687 124.506C60.9822 126.081 59.6405 127.915 60.0756 128.372L60.0797 128.37C63.5626 130.115 65.1013 126.402 66.7112 128.854C68.4134 131.452 63.5668 133.313 59.6982 132.327C58.8268 132.078 57.9555 131.611 57.3514 130.98L57.3543 130.981C54.8877 128.399 56.8667 124.783 60.0869 121.752L60.0927 121.755C65.4615 116.727 58.5972 114.871 58.5786 114.866Z" fill="#CCCCCC"/>
</g>
<defs>
<clipPath id="clip0_3_516">
<rect width="161.036" height="161.036" fill="white" transform="translate(63.1779) rotate(22.9101)"/>
</clipPath>
</defs>
</svg>
